HIERARCHY
ROOT Hips
{
	OFFSET 0.00000 0.00000 0.00000
	CHANNELS 6 Xposition Yposition Zposition Zrotation Yrotation Xrotation 
	JOINT LHipJoint
	{
		OFFSET 0 0 0
		CHANNELS 3 Zrotation Yrotation Xrotation
		JOINT LeftUpLeg
		{
			OFFSET 1.24777 -1.64261 0.71711
			CHANNELS 3 Zrotation Yrotation Xrotation
			JOINT LeftLeg
			{
				OFFSET 2.49329 -6.85026 0.00000
				CHANNELS 3 Zrotation Yrotation Xrotation
				JOINT LeftFoot
				{
					OFFSET 2.36770 -6.50520 0.00000
					CHANNELS 3 Zrotation Yrotation Xrotation
					JOINT LeftToeBase
					{
						OFFSET 0.14820 -0.40718 2.21395
						CHANNELS 3 Zrotation Yrotation Xrotation
						End Site
						{
							OFFSET 0.00000 -0.00000 1.13491
						}
					}
				}
			}
		}
	}
	JOINT RHipJoint
	{
		OFFSET 0 0 0
		CHANNELS 3 Zrotation Yrotation Xrotation
		JOINT RightUpLeg
		{
			OFFSET -1.18320 -1.64261 0.71711
			CHANNELS 3 Zrotation Yrotation Xrotation
			JOINT RightLeg
			{
				OFFSET -2.46559 -6.77417 0.00000
				CHANNELS 3 Zrotation Yrotation Xrotation
				JOINT RightFoot
				{
					OFFSET -2.38450 -6.55136 0.00000
					CHANNELS 3 Zrotation Yrotation Xrotation
					JOINT RightToeBase
					{
						OFFSET -0.17454 -0.47954 2.02925
						CHANNELS 3 Zrotation Yrotation Xrotation
						End Site
						{
							OFFSET -0.00000 -0.00000 1.05076
						}
					}
				}
			}
		}
	}
	JOINT LowerBack
	{
		OFFSET 0 0 0
		CHANNELS 3 Zrotation Yrotation Xrotation
		JOINT Spine
		{
			OFFSET -0.02305 1.98660 0.00319
			CHANNELS 3 Zrotation Yrotation Xrotation
			JOINT Spine1
			{
				OFFSET -0.00718 1.99033 -0.00533
				CHANNELS 3 Zrotation Yrotation Xrotation
				JOINT Neck
				{
					OFFSET 0 0 0
					CHANNELS 3 Zrotation Yrotation Xrotation
					JOINT Neck1
					{
						OFFSET 0.00095 1.61015 0.10698
						CHANNELS 3 Zrotation Yrotation Xrotation
						JOINT Head
						{
							OFFSET -0.01060 1.59924 0.01317
							CHANNELS 3 Zrotation Yrotation Xrotation
							End Site
							{
								OFFSET -0.00458 1.63304 -0.00592
							}
						}
					}
				}
				JOINT LeftShoulder
				{
					OFFSET 0 0 0
					CHANNELS 3 Zrotation Yrotation Xrotation
					JOINT LeftArm
					{
						OFFSET 3.05381 1.47088 -0.01697
						CHANNELS 3 Zrotation Yrotation Xrotation
						JOINT LeftForeArm
						{
							OFFSET 4.25106 -0.00000 0.00000
							CHANNELS 3 Zrotation Yrotation Xrotation
							JOINT LeftHand
							{
								OFFSET 3.27592 -0.00000 0.00000
								CHANNELS 3 Zrotation Yrotation Xrotation
								JOINT LeftFingerBase
								{
									OFFSET 0 0 0
									CHANNELS 3 Zrotation Yrotation Xrotation
									JOINT LeftHandIndex1
									{
										OFFSET 0.65781 -0.00000 0.00000
										CHANNELS 3 Zrotation Yrotation Xrotation
										End Site
										{
											OFFSET 0.53034 -0.00000 0.00000
										}
									}
								}
								JOINT LThumb
								{
									OFFSET 0 0 0
									CHANNELS 3 Zrotation Yrotation Xrotation
									End Site
									{
										OFFSET 0.53844 -0.00000 0.53844
									}
								}
							}
						}
					}
				}
				JOINT RightShoulder
				{
					OFFSET 0 0 0
					CHANNELS 3 Zrotation Yrotation Xrotation
					JOINT RightArm
					{
						OFFSET -2.83695 1.31619 -0.22674
						CHANNELS 3 Zrotation Yrotation Xrotation
						JOINT RightForeArm
						{
							OFFSET -4.46073 -0.00000 0.00000
							CHANNELS 3 Zrotation Yrotation Xrotation
							JOINT RightHand
							{
								OFFSET -3.44416 -0.00000 0.00000
								CHANNELS 3 Zrotation Yrotation Xrotation
								JOINT RightFingerBase
								{
									OFFSET 0 0 0
									CHANNELS 3 Zrotation Yrotation Xrotation
									JOINT RightHandIndex1
									{
										OFFSET -0.61651 -0.00000 0.00000
										CHANNELS 3 Zrotation Yrotation Xrotation
										End Site
										{
											OFFSET -0.49705 -0.00000 0.00000
										}
									}
								}
								JOINT RThumb
								{
									OFFSET 0 0 0
									CHANNELS 3 Zrotation Yrotation Xrotation
									End Site
									{
										OFFSET -0.50464 -0.00000 0.50464
									}
								}
							}
						}
					}
				}
			}
		}
	}
}
MOTION
Frames: 14
Frame Time: .016667
-13.1031 16.9794 -34.4429 0 0 0 0 0 0 -21 0 0 0 0 0 0 0 0 0 0 0 0 0 0 21 0 0 0 0 0 0 0 0 0 0 0 0 0 0 0 0 0 0 0 0 0 0 -16 0 0 21 0 0 11 0 0 0 -8 0 0 0 0 0 0 0 0 0 0 0 0 0 0 0 0 0 0 0 0 8 0 0 0 0 0 0 0 0 0 0 0 0 0 0 0 0 0
-13.0876 16.9819 -34.4428 -0.2560 8.3861 9.1307 0.0000 0.0000 0.0000 -15.8608 -4.0888 -25.8226 3.8752 11.9924 35.7051 1.6389 -25.9963 -27.5202 7.0232 15.3514 48.9622 0.0000 0.0000 0.0000 22.3716 8.4711 -18.8087 -3.3073 -11.1766 32.8778 -2.7278 -11.5925 -36.9361 -0.3571 -3.8392 10.6246 6.3981 1.4763 -10.9238 -1.4143 1.1899 2.2268 -4.9164 0.9494 8.7165 -1.1770 6.5270 -7.8706 0.7052 8.7899 2.9019 0.7896 4.3862 2.1720 -0.0000 0.0000 0.0000 -84.6807 6.5767 48.6977 28.1292 -39.2349 -10.2053 -0.0000 0.0000 -9.5634 -13.5771 12.8871 -3.0831 -7.1250 0.0000 -0.0000 -34.8923 40.1710 4.8555 -0.0000 0.0000 0.0000 92.0441 -5.5341 48.3725 -21.0277 31.8606 -6.0645 0.0000 0.0000 0.4289 -21.1803 -19.3289 7.3084 7.1250 -0.0000 -0.0000 7.1160 -50.4600 -0.9618
-13.0598 16.9919 -34.4696 -0.3784 7.9169 9.8452 0.0000 0.0000 0.0000 -15.8403 -4.2609 -26.6019 3.8550 11.9649 35.6078 1.6851 -25.4481 -27.5136 7.0344 15.3608 49.0042 0.0000 0.0000 0.0000 22.2020 9.0834 -19.6440 -3.3138 -11.1864 32.9113 -2.6757 -11.5278 -36.6265 -0.3515 -3.8094 10.5409 5.9814 1.5174 -11.0773 -1.3298 1.2933 1.9186 -4.5677 0.9594 8.4669 -0.7687 5.3784 -7.4680 0.0941 7.2380 1.6698 0.4270 3.6080 1.7512 -0.0000 0.0000 0.0000 -84.9932 6.4423 48.4971 27.5130 -38.6641 -9.8180 -0.0000 0.0000 -9.4568 -10.5261 11.5138 -2.1240 -7.1250 0.0000 -0.0000 -31.9827 39.3065 5.1168 -0.0000 0.0000 0.0000 92.0180 -5.4576 47.7826 -20.8470 31.6494 -5.9695 0.0000 0.0000 1.2227 -21.8046 -19.6622 7.6665 7.1250 -0.0000 -0.0000 6.5997 -50.9119 -0.9649
-13.0271 16.9956 -34.4727 -0.4041 7.4708 9.9671 0.0000 0.0000 0.0000 -15.9667 -4.3328 -26.5771 3.8342 11.9364 35.5074 1.7882 -24.8670 -27.7915 6.9562 15.2949 48.7083 0.0000 0.0000 0.0000 22.0297 10.4073 -19.2889 -3.3099 -11.1806 32.8915 -2.6172 -12.2546 -36.8033 -0.3818 -3.9683 10.9874 5.4911 1.5274 -11.0603 -1.2619 1.3720 1.8760 -4.2012 0.9685 8.4028 -0.7382 4.4722 -7.8181 -0.0244 6.0339 1.5386 0.3494 3.0047 1.7832 0.0000 -0.0000 0.0000 -85.2943 6.3114 48.2283 26.9444 -38.1262 -9.4648 -0.0000 0.0000 -9.0267 -8.6393 12.1780 -1.8358 -7.1250 0.0000 -0.0000 -30.7961 40.0691 4.2144 0.0000 -0.0000 0.0000 92.0741 -5.7549 46.7317 -20.9778 31.8024 -6.0382 0.0000 0.0000 3.0038 -22.4449 -20.1083 8.0830 7.1250 -0.0000 -0.0000 6.0954 -51.4892 -0.9773
-12.9873 17.0029 -34.4822 0.0556 7.0221 10.3683 0.0000 0.0000 0.0000 -16.6444 -4.7573 -26.6297 3.7787 11.8600 35.2384 1.8837 -24.0531 -27.9528 6.9231 15.2668 48.5828 0.0000 0.0000 0.0000 21.2649 9.6910 -20.0974 -3.3326 -11.2149 33.0081 -2.6647 -11.2155 -36.3684 -0.3185 -3.6279 10.0322 4.6292 1.5297 -11.1707 -1.3474 1.4997 1.7424 -3.7789 0.9858 8.3099 -0.9114 3.7330 -7.4415 0.0589 5.0555 0.5166 0.3413 2.5240 1.3831 0.0000 0.0000 0.0000 -85.5856 6.1551 48.1333 26.3132 -37.5163 -9.0777 -0.0000 0.0000 -9.0253 -6.3357 13.0387 -1.4350 -7.1250 0.0000 -0.0000 -29.3238 41.0518 3.1679 0.0000 0.0000 0.0000 91.9572 -5.3172 46.6894 -20.4284 31.1551 -5.7514 0.0000 0.0000 3.7345 -23.4766 -20.3540 8.5906 7.1250 -0.0000 -0.0000 5.1330 -51.9299 -0.8778
-12.9503 17.0075 -34.4767 0.6245 6.4879 10.5302 0.0000 0.0000 0.0000 -17.4887 -4.8358 -26.3335 3.6897 11.7357 34.8033 1.9671 -23.4110 -28.1370 6.8757 15.2264 48.4028 0.0000 0.0000 0.0000 20.4067 10.1744 -20.1635 -3.3892 -11.2999 33.2980 -2.7416 -11.1042 -36.6953 -0.3670 -3.8913 10.7711 3.5562 1.5384 -11.2802 -1.4401 1.6665 1.7320 -3.2367 1.0184 8.3444 -0.3476 2.9081 -6.7549 -0.6702 3.9150 -0.7251 -0.0409 1.9489 0.9017 0.0000 -0.0000 0.0000 -85.9234 5.9125 47.9366 25.5397 -36.7505 -8.6107 -0.0000 0.0000 -8.4698 -4.4889 13.4746 -1.0480 -7.1250 0.0000 -0.0000 -28.0075 41.6232 2.5595 0.0000 -0.0000 0.0000 91.8962 -5.4792 46.0629 -20.3690 31.0844 -5.7207 0.0000 0.0000 5.2388 -24.7996 -20.2544 9.0880 7.1250 -0.0000 -0.0000 3.7686 -52.0626 -0.6561
-12.9191 17.0108 -34.4767 0.8469 5.9385 10.6214 0.0000 0.0000 0.0000 -17.8995 -4.8149 -26.1839 3.6379 11.6623 34.5475 2.0497 -22.8857 -28.3721 6.8367 15.1928 48.2541 0.0000 0.0000 0.0000 19.9827 10.1552 -20.3927 -3.4216 -11.3482 33.4633 -2.7070 -10.8673 -36.3674 -0.2880 -3.4510 9.5370 2.7462 1.6103 -11.2625 -1.4201 1.8764 1.7033 -2.7176 1.0797 8.2900 -0.2376 2.1868 -6.2971 -0.7982 2.9403 -1.5161 -0.1363 1.4645 0.5790 0.0000 0.0000 0.0000 -86.2543 5.6034 47.8488 24.7477 -35.9450 -8.1413 -0.0000 0.0000 -7.7661 -5.0443 19.8035 -1.7129 -7.1250 0.0000 -0.0000 -31.4215 47.0955 -1.7977 0.0000 0.0000 0.0000 91.8103 -5.4877 45.4997 -20.3337 31.0423 -5.7024 0.0000 0.0000 5.7308 -25.1787 -20.5177 9.3567 7.1250 -0.0000 -0.0000 3.4529 -52.4138 -0.6307
-12.9024 17.0097 -34.4951 0.5606 5.4456 10.7313 0.0000 0.0000 0.0000 -17.6605 -4.8114 -26.3273 3.6243 11.6430 34.4804 2.1063 -22.3745 -28.4881 6.8383 15.1942 48.2600 0.0000 0.0000 0.0000 20.1467 10.7935 -20.5327 -3.4287 -11.3586 33.4991 -2.6017 -11.1524 -35.9982 -0.2469 -3.1977 8.8296 2.2281 1.7001 -10.9944 -1.2192 2.0583 1.5979 -2.1837 1.1340 8.0060 0.0228 1.6092 -6.0558 -1.0432 2.1487 -2.1888 -0.2769 1.0684 0.3346 0.0000 -0.0000 0.0000 -86.4764 5.4729 47.7803 24.1757 -35.3495 -7.8080 -0.0000 0.0000 -6.8156 -1.8165 13.7112 -0.4307 -7.1250 0.0000 -0.0000 -25.9023 42.1064 1.9982 0.0000 -0.0000 0.0000 91.6088 -5.4814 45.3296 -20.3136 31.0183 -5.6921 0.0000 0.0000 5.8405 -25.5442 -20.5830 9.5378 7.1250 -0.0000 -0.0000 3.0964 -52.5517 -0.5759
-12.8688 17.0158 -34.4852 0.5452 5.0868 10.7960 0.0000 0.0000 0.0000 -17.8318 -4.8291 -26.2141 3.6160 11.6311 34.4392 2.1916 -22.0240 -28.8114 6.8532 15.2070 48.3168 0.0000 0.0000 0.0000 19.9734 10.7638 -20.5623 -3.4229 -11.3500 33.4696 -2.6533 -10.7674 -36.0241 -0.2478 -3.2035 8.8458 1.6921 1.7408 -11.1623 -1.1296 2.1772 1.6214 -1.7601 1.1656 8.1090 -0.1060 1.2844 -6.2966 -0.6941 1.7247 -2.2210 -0.1571 0.8599 0.3573 0.0000 0.0000 0.0000 -86.7408 5.1055 47.7677 23.4707 -34.5995 -7.4038 -0.0000 0.0000 -5.9218 -0.3700 12.5155 -0.0802 -7.1250 0.0000 -0.0000 -24.2562 41.1653 2.4582 0.0000 0.0000 0.0000 91.6063 -5.5251 44.6169 -20.1597 30.8342 -5.6130 0.0000 0.0000 6.7026 -26.0240 -20.1196 9.5338 7.1250 -0.0000 -0.0000 2.4887 -52.1422 -0.4378
-12.8410 17.0141 -34.4742 0.5373 4.7020 10.5585 0.0000 0.0000 0.0000 -17.9995 -4.7102 -25.7887 3.5956 11.6019 34.3378 2.2731 -21.7004 -29.1273 6.8632 15.2156 48.3551 0.0000 0.0000 0.0000 19.8860 11.2180 -20.0381 -3.4151 -11.3385 33.4303 -2.6846 -10.8770 -36.2567 -0.2975 -3.5074 9.6947 1.0629 1.7828 -10.9930 -1.0174 2.3139 1.7053 -1.2649 1.2006 8.0764 -0.0952 0.9516 -6.3098 -0.4986 1.2798 -2.4726 -0.1096 0.6397 0.2791 0.0000 -0.0000 0.0000 -86.8724 4.9538 48.0399 23.0422 -34.1349 -7.1619 -0.0000 0.0000 -5.0358 0.0620 14.1693 0.0152 -7.1250 0.0000 -0.0000 -24.5078 42.7149 1.4790 0.0000 -0.0000 0.0000 91.4233 -5.7232 44.2196 -20.2595 30.9538 -5.6642 0.0000 0.0000 7.0476 -26.1592 -20.1794 9.6167 7.1250 -0.0000 -0.0000 2.3652 -52.2318 -0.4213
-12.8175 17.0163 -34.4809 0.3695 4.3020 10.6840 0.0000 0.0000 0.0000 -17.9326 -4.7075 -25.9099 3.5917 11.5964 34.3186 2.3216 -21.3324 -29.2644 6.8541 15.2078 48.3203 0.0000 0.0000 0.0000 19.9134 11.2008 -20.2958 -3.4089 -11.3293 33.3985 -2.6510 -10.5780 -35.8930 -0.2552 -3.2501 8.9758 0.5947 1.8369 -10.9339 -0.8778 2.4392 1.6419 -0.8340 1.2359 7.9513 0.4565 0.5052 -5.6408 -1.0982 0.6403 -3.6958 -0.3965 0.3161 -0.1992 -0.0000 0.0000 0.0000 -86.8404 4.8752 48.3589 22.7570 -33.8220 -7.0026 -0.0000 0.0000 -4.4699 0.3057 14.4348 0.0762 -7.1250 0.0000 -0.0000 -24.4043 42.9821 1.2992 -0.0000 0.0000 0.0000 91.3861 -5.9167 43.5374 -20.2176 30.9036 -5.6427 0.0000 0.0000 7.8555 -26.4427 -19.6302 9.4852 7.1250 -0.0000 -0.0000 1.9466 -51.6895 -0.3208
-12.7922 17.0187 -34.4855 0.1717 3.9283 10.8463 0.0000 0.0000 0.0000 -17.8398 -4.7220 -26.0846 3.5981 11.6054 34.3501 2.3698 -20.9729 -29.4072 6.8344 15.1909 48.2454 0.0000 0.0000 0.0000 19.9487 11.4715 -20.4348 -3.3954 -11.3091 33.3296 -2.6354 -10.4325 -35.7198 -0.2522 -3.2315 8.9241 0.1770 1.8913 -10.9331 -0.7336 2.5570 1.5696 -0.4272 1.2707 7.8497 0.2512 0.4012 -6.1500 -0.5788 0.5212 -3.2422 -0.2063 0.2586 0.0168 0.0000 0.0000 0.0000 -86.8226 4.8009 48.7223 22.5082 -33.5466 -6.8646 -0.0000 0.0000 -3.9118 0.5461 14.2703 0.1346 -7.1250 0.0000 -0.0000 -24.1379 42.8575 1.3625 0.0000 0.0000 0.0000 91.4645 -5.7585 42.5686 -20.1111 30.7759 -5.5881 0.0000 0.0000 7.3737 -25.5485 -19.7527 9.1769 7.1250 -0.0000 -0.0000 2.8821 -51.6602 -0.4730
-12.7632 17.0214 -34.4847 -0.0134 3.6098 11.0131 0.0000 0.0000 0.0000 -17.7718 -4.8082 -26.2114 3.5999 11.6081 34.3593 2.4212 -20.5925 -29.5648 6.8198 15.1782 48.1893 0.0000 0.0000 0.0000 19.9567 11.9181 -20.4704 -3.3812 -11.2879 33.2572 -2.6274 -10.5102 -35.7261 -0.2791 -3.3981 9.3892 -0.1613 1.9297 -11.0302 -0.6089 2.6448 1.5301 -0.0873 1.2951 7.8421 0.4728 0.1878 -6.1016 -0.6980 0.2209 -3.6205 -0.2836 0.1060 -0.1067 -0.0000 0.0000 0.0000 -86.6918 4.6258 49.3386 22.3338 -33.3522 -6.7684 -0.0000 0.0000 -3.7123 0.4534 14.0493 0.1101 -7.1250 0.0000 -0.0000 -24.1322 42.6461 1.4970 -0.0000 0.0000 0.0000 91.3723 -6.0141 42.0934 -20.3343 31.0430 -5.7027 0.0000 0.0000 7.3099 -25.5641 -19.7818 9.1960 7.1250 -0.0000 -0.0000 2.8734 -51.6944 -0.4740
-12.7329 17.0217 -34.4724 -0.1898 3.3426 10.8307 0.0000 0.0000 0.0000 -17.7440 -4.7513 -25.9164 3.6012 11.6099 34.3655 2.4842 -20.3429 -29.8206 6.8538 15.2075 48.3191 0.0000 0.0000 0.0000 20.0731 11.5001 -20.4136 -3.3725 -11.2749 33.2127 -2.6054 -10.1248 -35.3690 -0.2473 -3.1998 8.8356 -0.4773 1.9710 -10.9942 -0.4745 2.7339 1.6304 0.2486 1.3205 7.9077 0.6701 -0.0077 -5.9148 -0.8206 -0.0541 -4.0907 -0.3569 -0.0334 -0.2807 -0.0000 -0.0000 0.0000 -86.5688 4.4655 49.9643 22.2422 -33.2497 -6.7182 -0.0000 0.0000 -3.5065 0.2792 13.8551 0.0669 -7.1250 0.0000 -0.0000 -24.2057 42.4511 1.6271 -0.0000 -0.0000 0.0000 91.3658 -6.1538 41.3890 -20.3726 31.0886 -5.7225 0.0000 0.0000 7.4710 -25.5193 -19.9126 9.2351 7.1250 -0.0000 -0.0000 2.9509 -51.8270 -0.4964
